<?xml version="1.0" encoding="iso-8859-1"?>
<!-- Generator: Adobe Illustrator 19.0.0, SVG Export Plug-In . SVG Version: 6.00 Build 0)  -->
<svg version="1.1" id="Capa_1" xmlns="http://www.w3.org/2000/svg" xmlns:xlink="http://www.w3.org/1999/xlink" x="0px" y="0px"
	 viewBox="0 0 453.44 453.44" style="enable-background:new 0 0 453.44 453.44;" xml:space="preserve">
<g>
	<g>
		<g>
			<path d="M234.44,24.42V7.78c-0.126-4.248-3.552-7.656-7.8-7.76c-4.263,0.105-7.695,3.537-7.8,7.8v16.6
				c-84.997,3.754-153.442,71.076-158.6,156h332.8C387.882,95.496,319.437,28.174,234.44,24.42z"/>
			<polygon points="226.64,0.02 226.64,0.02 226.64,0.02 			"/>
		</g>
	</g>
</g>
<g>
	<g>
		<path d="M423.44,192.62l-0.16-0.08H30c-16.581,0.044-30,13.498-30,30.08v222.8c0,4.418,3.582,8,8,8h437.44c4.418,0,8-3.582,8-8
			v-222.8C453.396,206.07,439.99,192.664,423.44,192.62z M241.48,238.62h38.84v38.84h-38.84V238.62z M172.96,238.62h38.84v38.84
			h-38.84V238.62z M104.56,238.62h38.84v38.84h-38.84V238.62z M131.76,437.54v-24c0-52.401,42.479-94.88,94.88-94.88
			c52.401,0,94.88,42.479,94.88,94.88l0.04,24H131.76z M348.76,277.54h-38.84v-38.92h38.84V277.54z"/>
	</g>
</g>
<g>
</g>
<g>
</g>
<g>
</g>
<g>
</g>
<g>
</g>
<g>
</g>
<g>
</g>
<g>
</g>
<g>
</g>
<g>
</g>
<g>
</g>
<g>
</g>
<g>
</g>
<g>
</g>
<g>
</g>
</svg>
