<svg id="Capa_1" enable-background="new 0 0 512 512" height="512" viewBox="0 0 512 512" width="512" xmlns="http://www.w3.org/2000/svg"><g><g><g><path d="m128.887 166.665s-28.05-37.79-29.252-92.45c-.067-3.058 2.643-5.438 5.673-5.021 6.266.862 16.729 1.597 26.371-1.003 29.465-7.945 58.456-66.401 109.533-68.104 51.078-1.703 60.983 22.134 60.983 22.134s18.79-11.17 46.848-7.378c41.997 5.675 78.887 69.657 41.394 157.551z" fill="#e5907b"/><g><path d="m114.763 183.919c0 19.85 15.405 30.12 28.96 30.12 0 0 14.63-13.007 14.635-12.763 0-.082-.006-.162-.006-.243l9-18.581-9-15.905c-4.341-2.387-9.326-3.748-14.63-3.748-13.554 0-25.032 8.87-28.959 21.12z" fill="#ebbaa1"/><path d="m143.723 205.039c-13.554 0-25.032-8.87-28.959-21.12-.939 2.929-1.451 6.049-1.451 9.29 0 16.795 13.615 30.41 30.41 30.41 5.985 0 11.561-1.736 16.266-4.721l7.856-8.052-9.487-9.571c-4.343 2.393-9.327 3.764-14.635 3.764z" fill="#e8a990"/><path d="m397.237 183.919c0 19.85-15.405 30.12-28.959 30.12 0 0-14.63-13.007-14.635-12.763 0-.082.006-.162.006-.243l-9-18.581 9-15.905c4.341-2.387 9.326-3.748 14.63-3.748 13.553 0 25.031 8.87 28.958 21.12z" fill="#ebbaa1"/><path d="m368.277 205.039c13.554 0 25.032-8.87 28.96-21.12.939 2.929 1.451 6.049 1.451 9.29 0 16.795-13.615 30.41-30.41 30.41-5.985 0-11.561-1.736-16.266-4.721l-7.856-8.052 9.487-9.571c4.342 2.393 9.326 3.764 14.634 3.764z" fill="#e8a990"/></g><path d="m256 289.099c53.929 0 97.647-43.479 97.647-106.647v-28.036c0-8.548-3.48-16.773-9.762-22.568-18.233-16.82-38.53-45.919-46.683-58.071-1.872-2.79-5.844-3.05-8.113-.572-41.13 44.921-94.406 59.891-118.246 64.548-7.263 1.419-12.49 7.791-12.49 15.191v29.508c-.001 64.815 43.718 106.647 97.647 106.647z" fill="#fdd4bb"/><path d="m301.733 287.322c-13.644 7.246-29.207 11.357-45.733 11.357-16.526 0-32.089-4.111-45.733-11.357-65.894 13.795-115.383 72.222-115.383 142.214v35.359l9 28.524 152.116 9 152.116-9 9-28.524v-35.359c0-69.993-49.489-128.42-115.383-142.214z" fill="#f4594e"/><path d="m176.658 512h158.684l7.742-9.29-7.742-9.291h-158.684l-7.742 9.291z" fill="#e84642"/><path d="m209.961 287.16c-.093 1.201-.156 2.41-.156 3.634 0 25.513 20.682 46.195 46.195 46.195s46.195-20.682 46.195-46.195c0-1.224-.062-2.434-.156-3.634z" fill="#ebbaa1"/><path d="m417.116 493.419-37.016 9-37.016-9v-28.524h74.032z" fill="#fdd4bb"/><path d="m94.884 493.419 37.016 9 37.016-9v-28.524h-74.032z" fill="#fdd4bb"/><path d="m350.826 512h61.291c2.761 0 5-2.239 5-5v-13.581h-66.291l-7.742 9.29z" fill="#f7c4a8"/><path d="m99.884 512h61.291l7.742-9.29-7.742-9.29h-66.291v13.58c0 2.761 2.238 5 5 5z" fill="#f7c4a8"/><path d="m203.838 237.392c-2.405 0-4.774-1.116-6.287-3.216l-45.479-63.103c-2.5-3.469-1.715-8.308 1.754-10.808 3.47-2.5 8.307-1.714 10.807 1.754l45.479 63.103c2.5 3.469 1.715 8.307-1.754 10.807-1.369.988-2.952 1.463-4.52 1.463z" fill="#adf0ff"/><path d="m308.161 237.392c-1.568 0-3.151-.475-4.52-1.462-3.469-2.5-4.254-7.339-1.754-10.807l45.479-63.103c2.499-3.469 7.338-4.254 10.807-1.754s4.254 7.339 1.754 10.808l-45.479 63.103c-1.513 2.098-3.882 3.215-6.287 3.215z" fill="#adf0ff"/><g fill="#f7c4a8"><path d="m178.049 241.264c-12.362-16.359-19.697-36.728-19.697-58.812v18.581c0 17.398 4.555 33.729 12.53 47.876l8.301 1.894z"/><path d="m333.95 241.264-.873 9.538 8.04-1.894c7.975-14.147 12.53-30.479 12.53-47.877v-18.581c0 22.086-7.335 42.455-19.697 58.814z"/></g><path d="m178.049 241.264c10.749 27.213 46.106 47.835 77.951 47.835 31.845 0 63.403-20.622 77.95-47.835-14.637-14.697-44.056-39.124-77.95-39.124s-63.313 24.427-77.951 39.124z" fill="#ebf2f8"/><path d="m256 280.099c-31.845 0-60.126-15.247-77.951-38.835-3.064 3.076-5.495 5.735-7.167 7.645 16.745 29.707 48.586 49.771 85.117 49.771 36.531 0 68.372-20.064 85.117-49.771-1.672-1.909-4.103-4.569-7.167-7.644-17.824 23.587-46.104 38.834-77.949 38.834z" fill="#d6e3ed"/><g><path d="m176.658 493.419v-72.792c0-4.276-3.466-7.742-7.742-7.742s-7.742 3.466-7.742 7.742v72.792l7.742 9.29z" fill="#db4040"/><path d="m350.826 493.419v-72.792c0-4.276-3.466-7.742-7.742-7.742s-7.742 3.466-7.742 7.742v72.792l7.742 9.29z" fill="#db4040"/><g fill="#c63c3c"><path d="m161.174 493.419h15.484v18.581h-15.484z"/><path d="m335.342 493.419h15.484v18.581h-15.484z"/></g></g></g></g><g fill="#565e75"><path d="m211.589 192.171c4.284 0 7.757-3.473 7.757-7.757v-13.838c0-4.284-3.473-7.757-7.757-7.757s-7.757 3.473-7.757 7.757v13.838c0 4.284 3.473 7.757 7.757 7.757z"/><path d="m300.411 192.171c4.284 0 7.757-3.473 7.757-7.757v-13.838c0-4.284-3.473-7.757-7.757-7.757s-7.757 3.473-7.757 7.757v13.838c0 4.284 3.473 7.757 7.757 7.757z"/></g></g></svg>